<svg xmlns="http://www.w3.org/2000/svg" height="2048" preserveAspectRatio="none" style="display: block;" version="1.1" viewBox="0 0 2048 2048" width="2048">
<path d="M 0 0 L 2048 0 L 2048 2048 L 0 2048 L 0 0 z" fill="rgb(255,60,14)" transform="translate(0,0)"></path>
<path d="M 530.723 1446.99 C 527.324 1444.17 523.97 1441.29 520.663 1438.35 C 399.345 1330.57 326.564 1192.37 315.669 1029.22 C 305.582 873.407 364.873 718.106 470.214 603.733 C 740.8 309.944 1237.55 293.506 1532.79 558.58 C 1624.49 639.619 1689.38 746.627 1718.85 865.406 C 1724.08 887.388 1730 920.899 1731.21 943.522 C 1736.57 987.16 1733.03 1068.51 1722 1111.32 C 1719.27 1125.82 1708.28 1170.25 1702.14 1183.74 C 1692.92 1211.97 1675.38 1250.39 1660.61 1276.14 C 1569.48 1435.53 1411.61 1547.94 1235.62 1595.72 C 1102.34 1631.87 961.995 1633.12 828.087 1599.36 C 808.143 1594.34 764.958 1582.11 746.191 1573.17 C 662.058 1624.39 568.527 1658.25 471.107 1672.76 C 455.881 1675.08 429.616 1679.05 414.382 1679.07 C 402.397 1681.22 373.745 1680.72 359.399 1681.27 C 367.538 1677.31 377.876 1672.02 385.904 1668.31 C 387.442 1666.66 410.965 1651.78 415.528 1648.08 C 426.849 1638.9 435.569 1629.4 446.164 1619.85 C 448.323 1616.77 451.773 1612.94 454.355 1610.03 C 467.938 1594.73 478.589 1578.23 489.454 1560.97 C 494.284 1551.12 499.257 1543.42 504.059 1532.74 C 517.077 1503.79 524.555 1477.77 530.723 1446.99 z" fill="rgb(253,252,254)" transform="translate(0,0)"></path>
<path d="M 359.399 1681.27 C 367.538 1677.31 377.876 1672.02 385.904 1668.31 C 384.461 1670.66 378.743 1676.26 378.795 1676.08 C 380.242 1680.89 407.783 1678.29 414.382 1679.07 C 402.397 1681.22 373.745 1680.72 359.399 1681.27 z" fill="rgb(251,239,231)" transform="translate(0,0)"></path>
<path d="M 1250.15 1013.86 C 1263.93 1022.3 1279.69 1032.12 1293.72 1039.85 C 1287.86 1050.55 1278.81 1062.08 1270.88 1071.53 C 1229.52 1120.16 1174.76 1155.55 1113.42 1173.27 C 1016.08 1201.61 904.366 1179.56 824.894 1116.77 C 821.972 1114.65 818.87 1112.08 816.008 1109.82 L 804.922 1100.03 C 788.548 1084.34 780.843 1075.74 766.379 1058.18 C 762.753 1052.49 759.256 1047.47 755.34 1041.97 C 770.56 1033.42 785.704 1024.74 800.769 1015.92 C 819.281 1042.35 842.217 1065.38 868.566 1083.99 L 875.82 1088.73 C 1009.87 1169.48 1157.13 1138.5 1250.15 1013.86 z" fill="rgb(6,6,5)" transform="translate(0,0)"></path>
<path d="M 1214.24 724.45 C 1257.57 719.447 1296.76 750.504 1301.8 793.835 C 1306.83 837.166 1275.8 876.38 1232.47 881.444 C 1189.1 886.513 1149.84 855.446 1144.8 812.072 C 1139.76 768.697 1170.86 729.458 1214.24 724.45 z" fill="rgb(6,6,5)" transform="translate(0,0)"></path>
<path d="M 857.013 875.85 C 819.545 891.422 776.374 876.039 757.197 840.281 C 738.019 804.524 749.087 760.051 782.788 737.454 C 816.489 714.856 861.834 721.503 887.632 752.821 C 913.431 784.139 911.27 829.918 882.638 858.668 C 875.31 866.025 866.602 871.864 857.013 875.85 z" fill="rgb(6,6,5)" transform="translate(0,0)"></path>
<metadata><recraft-signature>{"signed_by": "recraft", "signature_b64": "PlyXWLtTJZR0oD1SHr2REKmBKEOjhu9i6T6oLW7VIoaySSjBRZcRHHhQVf76QMzBAWCAJXY4oiaf9sWD54dwCw==", "signing_algo": "Ed25519", "generation_timestamp": 1780494290, "identifier": "6a2f844b-eb95-4d6f-aed7-4998b6bc9bd0"}</recraft-signature></metadata></svg>