<svg xmlns="http://www.w3.org/2000/svg" height="2048" preserveAspectRatio="none" style="display: block;" version="1.1" viewBox="0 0 2048 2048" width="2048">
<path d="M 0 0 L 2048 0 L 2048 2048 L 0 2048 L 0 0 z" fill="rgb(255,255,255)" transform="translate(0,0)"></path>
<path d="M 807.718 417.49 C 861.075 416.832 916.461 417.428 969.925 417.513 L 1234.08 417.537 L 1368.33 417.634 C 1407.44 417.51 1451.43 415.056 1489.03 423.023 C 1567.25 439.958 1631.61 485.249 1674.53 552.485 C 1721.54 626.145 1718.68 688.295 1718.51 770.653 L 1718.49 917.04 L 1718.43 1101.46 C 1718.43 1116.95 1718.3 1132.61 1718.5 1148.09 C 1718.95 1182.6 1719.25 1212.53 1712.06 1246.63 C 1693.17 1336.12 1632.64 1409.17 1550.35 1447.82 C 1528.66 1459.19 1492.89 1463.77 1475.83 1481.83 C 1432.91 1527.24 1471.79 1617.92 1516.09 1648.8 C 1528.93 1657.75 1547.58 1659.45 1555.54 1672.38 C 1559.51 1678.82 1560.72 1686.59 1558.89 1693.92 C 1553.82 1713.91 1528.07 1717.34 1511 1720.68 C 1462.23 1730.22 1416.38 1725.23 1369.25 1711.35 C 1292.4 1688.61 1222.56 1632.52 1177.56 1567.24 C 1164.88 1548.85 1157.57 1526.55 1144 1509.66 C 1131.73 1494.39 1115.05 1481.75 1096.22 1475.9 C 1075.3 1469.39 1009.96 1472.56 984.155 1472.6 L 756.817 1472.55 L 668.535 1472.57 C 639.772 1472.66 613.065 1473.41 584.397 1470.06 C 521.873 1462.31 463.711 1433.96 419.092 1389.48 C 363.087 1334 335.636 1265.52 335.238 1187.03 L 335.185 860.969 L 335.243 757.029 C 335.278 713.458 333.04 678.672 343.481 635.618 C 355.888 585.511 381.716 539.731 418.188 503.2 C 462.827 458.42 527.437 424.859 590.359 419.172 C 617.184 416.747 651.326 417.603 678.781 417.6 L 807.718 417.49 z" fill="rgb(251,64,27)" transform="translate(0,0)"></path>
<path d="M 1272.21 731.288 C 1319.85 726.896 1362.12 761.757 1366.87 809.364 C 1371.62 856.971 1337.07 899.496 1289.5 904.603 C 1241.43 909.765 1198.35 874.773 1193.55 826.658 C 1188.75 778.542 1224.06 735.728 1272.21 731.288 z" fill="rgb(255,255,255)" transform="translate(0,0)"></path>
<path d="M 765.071 731.435 C 812.806 727.67 854.604 763.204 858.571 810.923 C 862.538 858.643 827.182 900.591 779.48 904.76 C 731.491 908.955 689.235 873.34 685.243 825.333 C 681.252 777.326 717.047 735.222 765.071 731.435 z" fill="rgb(255,255,255)" transform="translate(0,0)"></path>
<path d="M 1164.24 1057.42 L 1204.27 1091.74 C 1195.7 1100.89 1188.46 1108.36 1179.32 1116.92 C 1178.27 1117.83 1177.21 1118.74 1176.15 1119.64 C 1129.29 1159.57 1068.43 1179.17 1007.07 1174.08 C 945.557 1168.66 888.701 1139.06 848.972 1091.78 C 861.821 1080.33 874.771 1069 887.819 1057.78 C 890.287 1060.27 892.779 1062.73 895.292 1065.18 C 981.926 1149.79 1081.84 1143.32 1164.24 1057.42 z" fill="rgb(255,255,255)" transform="translate(0,0)"></path>
<metadata><recraft-signature>{"signed_by": "recraft", "signature_b64": "llh3LpdTfccnRaNmVu752WixplSewS6Syaq9kbm2m9+iRRwWZpHITvSvV3ISw87WUB8c7UmQ06f2b1KOBJwMBg==", "signing_algo": "Ed25519", "generation_timestamp": 1780494289, "identifier": "92dbcfa3-f23b-40c2-a6af-fd527967f69d"}</recraft-signature></metadata></svg>