<svg xmlns="http://www.w3.org/2000/svg" height="2048" preserveAspectRatio="none" style="display: block;" version="1.1" viewBox="0 0 2048 2048" width="2048">
<path d="M 0 0 L 2048 0 L 2048 2048 L 0 2048 L 0 0 z" fill="rgb(255,255,255)" transform="translate(0,0)"></path>
<path d="M 1351.43 985.808 C 1350.74 1075.84 1320 1157.29 1255.18 1221.17 C 1195.79 1280.31 1115.22 1313.25 1031.42 1312.64 C 982.786 1312.29 944.348 1304.56 895.874 1317.56 C 862.579 1325.13 836.337 1341.72 807.011 1357.9 C 730.041 1400.36 634.665 1408.48 552.22 1377.34 C 544.935 1374.59 527.572 1364.97 539.452 1353.77 C 542.313 1351.07 554.564 1345.89 558.682 1343.76 C 569.068 1338.33 579.038 1332.14 588.51 1325.24 C 676.803 1260.38 705.292 1156.79 703.165 1052.17 C 702.682 1028.41 700.354 1005.23 700.95 981.362 C 703.638 876.537 754.883 778.912 839.632 717.162 C 907.944 667.628 993.046 647.059 1076.44 659.925 C 1162.64 674.662 1239.49 722.941 1290.18 794.198 C 1321.43 837.604 1341.43 888.084 1348.38 941.115 C 1393.01 900.231 1408.51 853.375 1406.66 793.353 C 1399.77 789.343 1396.72 784.346 1390.8 779.093 C 1379.03 768.659 1331.27 753.73 1343.91 732.795 C 1355.78 713.143 1380.63 731.622 1395 738.201 C 1388.22 719.45 1380.47 700.218 1375.39 681.12 C 1372.09 668.698 1390 657.424 1399.67 664.279 C 1411.24 672.479 1418.35 698.249 1422.84 711.727 C 1424.06 711.684 1425.28 711.652 1426.5 711.632 C 1428.02 693.94 1433.52 634.026 1463.34 664.144 C 1469.45 670.32 1460.95 713.017 1459.48 722.328 C 1469.21 711.625 1502.2 667.55 1512.07 711.048 C 1513.84 718.878 1483.92 749.401 1476.68 756.114 C 1471.36 776.067 1465.12 786.329 1445.02 794.011 C 1445.16 871.402 1421.03 943.975 1351.43 985.808 z" fill="rgb(248,81,30)" transform="translate(0,0)"></path>
<path d="M 1426.5 711.632 L 1426.18 713.28 C 1426.06 713.94 1425.97 715.058 1425.27 715.411 C 1424.06 715.249 1423.39 712.921 1423.02 712.124 L 1422.84 711.727 C 1424.06 711.684 1425.28 711.652 1426.5 711.632 z" fill="rgb(252,219,203)" transform="translate(0,0)"></path>
<path d="M 1132.15 1029.17 C 1143.57 1030.11 1154.85 1038.33 1152.94 1050.46 C 1149.46 1067.27 1130.61 1086.84 1117.92 1097.51 C 1050.61 1154.05 970.422 1139.65 915.822 1075.72 C 910.726 1069.69 905.452 1063.39 902.178 1056.13 C 897.381 1045.5 903.795 1033.8 914.734 1030.49 C 919.604 1028.97 924.896 1029.63 929.24 1032.31 C 945.327 1042.42 954.413 1068.09 982.063 1081.32 C 1026.11 1102.4 1065.2 1093.65 1100.23 1059.86 C 1110.58 1049.87 1118.26 1033.1 1131.05 1029.47 L 1132.15 1029.17 z" fill="rgb(255,255,255)" transform="translate(0,0)"></path>
<path d="M 882.311 896.594 C 902.827 893.041 922.353 906.747 925.986 927.249 C 929.618 947.751 915.988 967.33 895.501 971.042 C 874.9 974.775 855.189 961.054 851.536 940.439 C 847.884 919.824 861.682 900.166 882.311 896.594 z" fill="rgb(255,255,255)" transform="translate(0,0)"></path>
<path d="M 1158.38 896.404 C 1178.84 892.872 1198.31 906.543 1201.93 926.987 C 1205.55 947.431 1191.96 966.956 1171.53 970.666 C 1150.98 974.398 1131.31 960.71 1127.67 940.14 C 1124.02 919.57 1137.8 899.958 1158.38 896.404 z" fill="rgb(255,255,255)" transform="translate(0,0)"></path>
<metadata><recraft-signature>{"signed_by": "recraft", "signature_b64": "+VO9YZ/H0Fm+7Kb1cGrubPG1p0QGbYQcAnGIgANUxFuQUiIrWoPIqFL3BxhDHI7PS7o2EceFWYe6ccvCN7AUDw==", "signing_algo": "Ed25519", "generation_timestamp": 1780494308, "identifier": "f30f956a-f621-47ce-8084-4cfa3057a71f"}</recraft-signature></metadata></svg>