<svg xmlns="http://www.w3.org/2000/svg" height="2048" preserveAspectRatio="none" style="display: block;" version="1.1" viewBox="0 0 2048 2048" width="2048">
<path d="M 0 0 L 2048 0 L 2048 2048 L 0 2048 L 0 0 z" fill="rgb(255,255,255)" transform="translate(0,0)"></path>
<path d="M 712.767 447.418 C 723.068 446.501 739.658 446.811 750.459 446.801 L 1122.88 446.807 L 1251.07 446.769 C 1307.82 446.773 1353.5 443.952 1409.04 458.53 C 1476.97 476.361 1531.44 507.997 1580.95 557.544 C 1637.65 614.833 1673.07 689.775 1681.34 769.951 C 1684.98 806.858 1683.36 866.644 1683.29 905.34 L 1683.22 1103.19 C 1683.27 1206.36 1651.87 1294.58 1577.86 1368.48 C 1518.21 1428.32 1439.64 1465.61 1355.55 1473.97 C 1321.67 1477.19 1277.01 1475.93 1242.01 1475.94 L 1062.49 1475.8 L 706.615 1475.71 C 684.335 1488.36 662.734 1504.1 640.142 1517.04 C 578.923 1552.1 514.634 1578.77 445.5 1593.69 C 412.382 1600.83 380.112 1605.13 369.997 1563.02 C 362.143 1526.3 403.667 1511.24 428.984 1493.83 C 467.479 1467.36 496.015 1439.73 523.917 1401.87 C 512.705 1393.79 501.787 1385.31 491.185 1376.45 C 422.721 1318.61 377.195 1233.42 369.763 1143.86 C 367.633 1118.21 368.236 1090.37 368.223 1064.5 L 368.188 953.698 L 368.209 846.963 C 368.213 820.639 367.53 791.495 370.081 765.505 C 377.604 695.655 406.188 629.744 452.04 576.517 C 520.001 496.506 609.23 455.71 712.767 447.418 z" fill="rgb(15,11,11)" transform="translate(0,0)"></path>
<path d="M 709.502 457.398 C 715.431 456.876 724.801 456.907 730.843 456.886 L 1117.97 457.019 L 1250.32 456.847 C 1305.31 456.782 1348.86 454.082 1402.95 467.184 C 1466.99 482.418 1525.5 515.258 1571.86 561.995 C 1627.47 617.486 1662.69 690.159 1671.77 768.199 C 1674.95 797.184 1674.31 831.063 1674.38 860.575 L 1674.3 992.346 L 1674.25 1075.61 C 1674.12 1155.71 1670.29 1212.26 1628.74 1285.14 C 1613.25 1312.67 1594.11 1337.99 1571.85 1360.4 C 1513.88 1418.9 1437.43 1455.5 1355.51 1463.97 C 1322.87 1467.08 1272.85 1465.49 1238.49 1465.48 L 1060.25 1465.59 L 702.434 1465.98 C 653.353 1497.4 605.393 1527.68 551.182 1549.85 C 524.152 1560.91 424.384 1597.99 398.065 1586.06 C 390.313 1582.55 384.172 1575.16 381.328 1567.23 C 377.598 1556.83 378.373 1545.35 385.153 1536.4 C 394.807 1523.67 414.428 1515.46 427.725 1506.59 C 463.708 1482.59 496.825 1453.74 523.229 1419.34 C 527.756 1413.44 533.099 1407.55 536.166 1400.78 C 535.441 1396.32 502.472 1373.33 495.117 1366.94 C 426.894 1308.3 384.891 1224.87 378.427 1135.14 C 377.039 1114.55 377.581 1089.58 377.554 1068.63 L 377.494 961.897 L 377.7 850.785 C 377.797 808.666 375.929 768.099 385.891 726.817 C 399.122 672.102 425.49 621.437 462.71 579.207 C 525.451 507.335 614.291 463.486 709.502 457.398 z" fill="rgb(250,75,19)" transform="translate(0,0)"></path>
<path d="M 828.918 746.717 C 897.221 739.873 958.184 789.586 965.225 857.869 C 972.266 926.152 922.729 987.259 854.467 994.497 C 785.925 1001.76 724.514 951.981 717.444 883.418 C 710.375 814.855 760.335 753.588 828.918 746.717 z" fill="rgb(15,11,11)" transform="translate(0,0)"></path>
<path d="M 743.269 1091.32 C 758.345 1091.06 764.982 1097.15 773.576 1108.76 C 834.062 1190.51 932.444 1245.43 1035.32 1243.85 C 1105.75 1242.78 1177.89 1215.2 1232.2 1170.33 C 1249.09 1156.21 1264.83 1140.76 1279.24 1124.12 C 1289.1 1112.58 1298.45 1094.07 1314.46 1091.83 C 1322.8 1090.58 1331.28 1092.94 1337.79 1098.32 C 1343.84 1103.36 1347.63 1110.62 1348.3 1118.47 C 1349.54 1133.74 1338.34 1144.83 1329.28 1156.07 C 1210.17 1305.97 1008.46 1348.49 842.652 1248.56 C 802.8 1224.62 767.368 1193.99 737.912 1158.03 C 725.342 1142.98 708.083 1124.18 721.822 1103.52 C 726.967 1095.78 734.486 1093.04 743.269 1091.32 z" fill="rgb(15,11,11)" transform="translate(0,0)"></path>
<path d="M 1206.83 620.4 C 1228.56 618.259 1257.46 621.923 1278.34 627.631 C 1336.22 644.02 1385.27 682.633 1414.79 735.046 C 1426.51 755.83 1455.54 816.821 1424.38 832.677 C 1410.32 840.56 1388.05 833.66 1383.48 817.458 C 1378.76 800.731 1374.88 787.472 1367.39 771.355 C 1328.28 697.882 1249.02 657.105 1168.47 689.244 C 1149.43 696.841 1131.42 717.627 1109.15 702.665 C 1096.12 693.905 1094.06 669.571 1105.42 659.174 C 1130.63 636.097 1173.31 623.567 1206.83 620.4 z" fill="rgb(15,11,11)" transform="translate(0,0)"></path>
<path d="M 1203.66 798.377 C 1270.03 791.313 1332.66 829.468 1361.46 890.386 C 1367.25 902.646 1362.73 918.731 1351.49 926.682 C 1344.53 931.62 1335.81 933.393 1327.48 931.567 C 1308.85 927.457 1308.01 912.776 1299.2 900.02 C 1282.96 876.546 1262.39 863.896 1235 858.223 C 1196.32 853.322 1162.57 866.254 1140.2 899.448 C 1131.32 912.622 1129.12 928.187 1110.65 931.874 C 1102.41 933.531 1093.84 931.632 1087.07 926.642 C 1060.52 907.095 1085.09 873.499 1099.91 855.063 C 1125.72 823.297 1162.98 802.941 1203.66 798.377 z" fill="rgb(15,11,11)" transform="translate(0,0)"></path>
<metadata><recraft-signature>{"signed_by": "recraft", "signature_b64": "95IwCF3oV4mm0tP3RKQmOn47iC4bKkWnX7Hr/9WjsbXJKufBKP1sdmhElY0Qp2hFbaxI5sGCwthY/hSYNfMNCw==", "signing_algo": "Ed25519", "generation_timestamp": 1780494358, "identifier": "933c71dd-623f-4d55-ad0f-75074d6212e5"}</recraft-signature></metadata></svg>