<svg xmlns="http://www.w3.org/2000/svg" height="2048" preserveAspectRatio="none" style="display: block;" version="1.1" viewBox="0 0 2048 2048" width="2048">
<path d="M 0 0 L 2048 0 L 2048 2048 L 0 2048 L 0 0 z" fill="rgb(255,255,255)" transform="translate(0,0)"></path>
<path d="M 677.283 661.818 L 1389.47 661.516 C 1389.89 707.868 1390.04 754.221 1389.89 800.575 C 1330.18 802.11 1263.92 800.667 1203.69 800.664 L 813.818 800.728 L 813.785 1138.95 C 813.804 1195.78 813.305 1253.35 814.043 1310.12 C 855.155 1269.92 899.567 1221.05 940.008 1179.14 L 1250.85 1179.05 L 1250.86 1058.22 L 939.159 1058.28 L 939.084 1036.5 L 939.097 920.063 C 989.983 919.336 1042.44 919.972 1093.43 919.962 L 1389.68 920.095 L 1389.99 1321.08 L 988.533 1321.31 L 760.56 1548.3 C 733.042 1575.85 705.318 1603.19 677.39 1630.32 L 677.283 661.818 z" fill="rgb(241,79,35)" transform="translate(0,0)"></path>
<metadata><recraft-signature>{"signed_by": "recraft", "signature_b64": "PkPsz6kW1FZ9oyIJZX/66nmMbYOEA9VlMtEhLRML8IMQ/r76bACY9EuRG2JzD+wfEMu6o9f9IPsCkpLarloIAA==", "signing_algo": "Ed25519", "generation_timestamp": 1780494425, "identifier": "d9010587-5fb4-4ef5-8188-a8523c7cde6d"}</recraft-signature></metadata></svg>