<?xml version="1.0" encoding="UTF-8"?>
<svg version="1.1" xmlns="http://www.w3.org/2000/svg" width="500" height="500">
<path d="M0 0 C165 0 330 0 500 0 C500 165 500 330 500 500 C335 500 170 500 0 500 C0 335 0 170 0 0 Z " fill="#FDFEFE" transform="translate(0,0)"/>
<path d="M0 0 C116.82 0 233.64 0 354 0 C354 32.34 354 64.68 354 98 C273.81 98 193.62 98 111 98 C111 106.58 111 115.16 111 124 C170.07 124 229.14 124 290 124 C290 156.01 290 188.02 290 221 C230.93 221 171.86 221 111 221 C111 227.93 111 234.86 111 242 C74.37 242 37.74 242 0 242 C0 162.14 0 82.28 0 0 Z " fill="#2E2F30" transform="translate(82,75)"/>
<path d="M0 0 C36.3 0 72.6 0 110 0 C110 28.38 110 56.76 110 86 C73.7 86 37.4 86 0 86 C0 57.62 0 29.24 0 0 Z " fill="#FE5A12" transform="translate(83,339)"/>
<path d="M0 0 C40.92 0 81.84 0 124 0 C124 0.33 124 0.66 124 1 C123.37916377 1.00331015 122.75832754 1.00662029 122.11867809 1.01003075 C107.0210722 1.09120691 91.92357564 1.18328154 76.8261137 1.28752708 C69.52512907 1.33767564 62.2241558 1.38411824 54.9230957 1.421875 C48.56042012 1.45478835 42.19783208 1.49461583 35.83525306 1.54279006 C32.46547142 1.5680617 29.0957479 1.58984092 25.72589684 1.60334396 C21.96646854 1.62014473 18.2073234 1.64916511 14.44799805 1.68115234 C13.32734451 1.68331253 12.20669098 1.68547272 11.05207825 1.68769836 C9.5187233 1.70444359 9.5187233 1.70444359 7.95439148 1.7215271 C6.62009614 1.72982324 6.62009614 1.72982324 5.25884533 1.73828697 C2.71840896 1.85893408 2.71840896 1.85893408 0 4 C0 2.68 0 1.36 0 0 Z " fill="#202122" transform="translate(84,76)"/>
</svg>
