<svg xmlns="http://www.w3.org/2000/svg" viewBox="0 0 512 512" width="100%" height="100%">
  <g fill="#34302f">
    <path d="M 52.3 217.5 L 118.0 217.5 L 119.1 218.3 L 119.4 219.1 L 119.4 243.5 L 118.8 244.3 L 84.2 244.6 L 83.7 245.1 L 83.7 280.3 L 116.7 280.8 L 117.5 282.2 L 117.5 306.1 L 117.0 307.1 L 115.9 307.7 L 84.8 307.7 L 83.9 308.2 L 83.7 373.7 L 83.1 374.5 L 81.8 375.0 L 53.3 375.0 L 52.3 374.8 L 51.2 373.4 L 51.2 218.8 L 52.3 217.5 Z" />
    <path d="M 130.4 217.5 L 160.4 217.5 L 161.8 218.6 L 162.1 347.4 L 175.7 347.9 L 199.9 347.9 L 200.4 348.5 L 200.4 350.9 L 198.6 370.5 L 198.3 373.2 L 197.2 374.8 L 131.2 375.0 L 129.3 373.7 L 129.3 218.6 L 130.4 217.5 Z" />
    <path d="M 183.5 217.5 L 216.3 217.5 L 217.6 218.6 L 224.6 261.8 L 227.5 286.2 L 228.1 287.0 L 228.9 286.2 L 229.7 281.6 L 239.4 218.6 L 240.4 217.5 L 271.6 217.5 L 272.6 218.6 L 272.4 221.0 L 244.5 324.0 L 244.5 372.9 L 244.2 374.0 L 243.4 374.8 L 214.1 375.0 L 213.1 374.8 L 212.0 373.4 L 212.0 324.8 L 187.3 234.7 L 182.7 219.4 L 182.7 218.3 L 183.5 217.5 Z" />
    <path d="M 281.0 217.5 L 312.9 217.5 L 314.2 218.6 L 327.9 276.5 L 335.2 311.4 L 336.3 315.5 L 336.8 316.0 L 337.6 315.7 L 337.6 305.5 L 336.0 249.2 L 336.0 218.3 L 337.1 217.5 L 362.0 217.5 L 363.1 218.3 L 363.4 373.4 L 362.8 374.5 L 361.5 375.0 L 332.0 375.0 L 329.8 374.0 L 329.0 372.1 L 328.2 367.3 L 318.5 325.9 L 307.8 275.7 L 307.0 274.7 L 306.2 275.2 L 306.2 288.9 L 307.0 312.8 L 307.3 373.4 L 306.2 374.8 L 305.1 375.0 L 281.5 375.0 L 280.2 374.2 L 279.9 218.6 L 281.0 217.5 Z" />
    <path d="M 377.9 217.5 L 410.3 217.5 L 411.4 218.3 L 417.9 244.1 L 428.3 290.2 L 433.2 314.4 L 434.0 316.0 L 435.0 315.5 L 435.0 307.9 L 434.5 299.3 L 433.7 263.9 L 433.4 218.8 L 434.5 217.5 L 459.5 217.5 L 460.8 218.6 L 460.8 373.7 L 460.3 374.5 L 458.9 375.0 L 429.4 375.0 L 428.1 374.8 L 426.7 373.7 L 422.1 355.4 L 405.2 277.9 L 404.7 275.7 L 403.9 274.7 L 403.1 275.2 L 403.1 290.0 L 404.2 324.6 L 404.2 373.4 L 403.1 374.8 L 401.7 375.0 L 378.9 375.0 L 377.1 374.2 L 376.5 372.9 L 376.5 219.1 L 376.8 218.3 L 377.9 217.5 Z" />
  </g>
  <circle cx="368.7" cy="169.0" r="32.0" fill="#f46430" />
</svg>