<svg xmlns="http://www.w3.org/2000/svg" height="2048" preserveAspectRatio="none" style="display: block;" version="1.1" viewBox="0 0 2048 2048" width="2048">
<path d="M 0 0 L 2048 0 L 2048 2048 L 0 2048 L 0 0 z" fill="rgb(255,255,255)" transform="translate(0,0)"></path>
<path d="M 1004.3 162.422 C 1094.4 162.258 1183.63 180.153 1266.7 215.049 C 1580.14 346.409 1743.65 676.57 1691.64 1006.61 C 1687.38 1027.64 1684.23 1052.63 1677.66 1072.81 C 1648.97 1160.91 1615.66 1250.4 1634.04 1344.51 C 1638.34 1366.55 1651.11 1416.08 1669.68 1431.33 C 1694.71 1451.87 1722.03 1458.06 1735.93 1492.81 C 1741.85 1507.25 1741.66 1523.48 1735.41 1537.78 C 1712.97 1589.72 1640.31 1598.27 1591.48 1591.4 C 1533.56 1583.78 1465.7 1555.94 1420.15 1518 C 1371.69 1477.64 1342.64 1455.03 1283.75 1429.68 C 1227.61 1406.31 1168.46 1390.98 1108.05 1384.14 C 1069.27 1379.97 1036.78 1380.31 997.958 1380.33 L 875.141 1380.22 C 847.955 1380.29 817.006 1381.07 790.21 1379.9 C 729.356 1377.34 669.394 1364.34 612.937 1341.48 C 554.82 1318.97 501.655 1285.33 456.423 1242.45 C 366.283 1159.23 313.163 1043.43 308.898 920.829 C 302.982 718.408 368.082 530.749 508.205 382.543 C 620.986 261.126 773.669 184.315 938.384 166.129 C 960.394 163.677 982.185 163.062 1004.3 162.422 z" fill="rgb(111,29,13)" transform="translate(0,0)"></path>
<path d="M 977.256 166.546 C 1073.03 160.347 1180.41 181.706 1268.34 219.319 C 1577.72 351.666 1738.41 674.721 1688.81 1003.05 C 1684.86 1022.81 1681.93 1046.81 1675.98 1065.83 C 1648.17 1154.81 1612.87 1244.18 1629.65 1339.27 C 1634.31 1365.71 1645.79 1412.99 1666.06 1432.38 C 1686.74 1452.17 1722 1461.92 1733.02 1493.79 C 1737.77 1507.4 1739.09 1523.27 1732.21 1536.78 C 1706.05 1588.55 1638.79 1595.01 1588.86 1587.7 C 1508.71 1575.96 1444.44 1537.65 1385.28 1484.42 C 1364.32 1465.55 1326.13 1445.32 1299.76 1433 C 1236.54 1404.74 1169.18 1386.84 1100.28 1380 C 1065.06 1376.59 1035.14 1376.97 999.85 1376.92 L 868.232 1376.9 C 844.035 1376.91 814.905 1377.77 791.124 1376.66 C 727.864 1373.86 665.599 1359.89 607.21 1335.38 C 555.504 1314.4 507.855 1284.55 466.406 1247.19 C 373.901 1163.04 317.773 1050.27 312.141 924.821 C 302.535 729.856 370.738 539.055 501.76 394.359 C 625.163 259.75 793.752 174.472 977.256 166.546 z" fill="rgb(244,65,18)" transform="translate(0,0)"></path>
<path d="M 717.77 905.297 C 719.517 905.208 721.265 905.166 723.014 905.17 C 740.809 905.346 752.451 921.415 765.637 931.283 C 790.737 950.383 817.931 966.562 846.693 979.508 C 899.646 1002.56 956.93 1013.99 1014.68 1013.01 C 1067.22 1012.78 1119.2 1002.15 1167.61 981.726 C 1196.37 969.618 1223.48 953.904 1248.28 934.96 C 1262.9 923.772 1278.84 904.417 1298.01 905.178 C 1308.7 905.708 1318.71 910.549 1325.76 918.594 C 1332.13 925.868 1334.99 935.853 1333.98 945.397 C 1332.13 962.741 1320.56 971.748 1308.31 981.861 C 1252.85 1027.48 1187.34 1059.25 1117.18 1074.55 C 992.572 1102.9 861.812 1080.57 753.673 1012.48 C 733.683 999.661 689.974 971.891 685.541 948.877 C 683.764 939.273 685.81 929.355 691.242 921.238 C 697.877 911.533 706.737 907.479 717.77 905.297 z" fill="rgb(111,29,13)" transform="translate(0,0)"></path>
<path d="M 1294.47 908.28 C 1323.35 907.84 1341.85 938.666 1323.93 962.395 C 1315.94 972.983 1298.38 985.947 1287.23 994.1 C 1223.85 1040.41 1149.62 1069.64 1071.68 1078.99 C 942.603 1094.98 820.117 1062.6 717.565 982.491 C 699.623 968.302 676.504 949.83 693.438 924.062 C 698.449 916.44 706.279 911.116 715.211 909.26 C 736.152 904.971 748.856 921.967 763.785 933.723 C 902.3 1042.8 1115.36 1044.71 1253.94 934.805 C 1265.63 925.536 1278.56 911.386 1293.24 908.51 L 1294.47 908.28 z" fill="rgb(244,65,18)" transform="translate(0,0)"></path>
<path d="M 1216.67 633.7 C 1262.29 629.084 1302.96 662.455 1307.35 708.1 C 1311.74 753.745 1278.16 794.251 1232.5 798.409 C 1187.15 802.537 1147 769.252 1142.64 723.93 C 1138.28 678.607 1171.37 638.283 1216.67 633.7 z" fill="rgb(111,29,13)" transform="translate(0,0)"></path>
<path d="M 1218.12 636.855 C 1261.88 633.065 1300.39 665.513 1304.09 709.273 C 1307.79 753.033 1275.25 791.481 1231.49 795.082 C 1187.85 798.673 1149.55 766.263 1145.86 722.636 C 1142.18 679.009 1174.51 640.634 1218.12 636.855 z" fill="rgb(244,65,18)" transform="translate(0,0)"></path>
<path d="M 787.201 633.822 C 832.68 628.616 873.736 661.345 878.798 706.84 C 883.86 752.335 851.002 793.287 805.492 798.206 C 760.183 803.103 719.453 770.423 714.413 725.13 C 709.374 679.838 741.925 639.004 787.201 633.822 z" fill="rgb(111,29,13)" transform="translate(0,0)"></path>
<path d="M 791.508 636.77 C 835.115 633.924 872.817 666.869 875.842 710.465 C 878.866 754.06 846.075 791.897 802.492 795.099 C 758.657 798.32 720.554 765.297 717.512 721.449 C 714.47 677.601 747.648 639.633 791.508 636.77 z" fill="rgb(244,65,18)" transform="translate(0,0)"></path>
<path d="M 1223.06 1513.74 L 1224.34 1514.2 C 1225.39 1518.02 1224.92 1552.18 1224.93 1558.02 L 1224.93 1683.78 C 1246.26 1683.89 1267.59 1683.85 1288.91 1683.66 C 1330.12 1683.45 1363.48 1681.15 1395.93 1713.13 C 1414.67 1731.86 1425.17 1757.29 1425.1 1783.78 C 1424.8 1810.18 1414.03 1835.38 1395.16 1853.85 C 1366.03 1882.77 1334.47 1883.99 1296.7 1883.97 L 1250.43 1883.91 L 1193.1 1883.95 C 1149.65 1883.93 1114.65 1883.3 1081.07 1849.85 C 1066.37 1835.33 1055.87 1817.1 1050.68 1797.1 C 1045.15 1775.6 1047.01 1736.11 1046.98 1712.37 L 1046.98 1589.45 C 1115.68 1583.4 1171.08 1557.88 1223.06 1513.74 z" fill="rgb(111,29,13)" transform="translate(0,0)"></path>
<path d="M 1220.82 1520.01 C 1221.44 1521.11 1221.6 1673.48 1221.75 1687.12 L 1285.4 1686.85 C 1299.17 1686.79 1312.94 1686.54 1326.7 1687.1 C 1378.54 1689.21 1420.9 1729.42 1421.53 1782.24 C 1421.84 1807.72 1411.87 1832.26 1393.88 1850.31 C 1365.29 1879.21 1333.81 1880.56 1296.25 1880.6 L 1249.75 1880.62 L 1246.51 1880.64 L 1192.35 1880.59 C 1147.87 1880.49 1117.24 1879.72 1083.24 1846.75 C 1043.44 1808.16 1050.52 1762.62 1050.52 1712.53 L 1050.49 1592.41 C 1113.18 1588.13 1172.97 1559.83 1220.82 1520.01 z" fill="rgb(244,65,18)" transform="translate(0,0)"></path>
<path d="M 794.86 1513.38 C 798.579 1515.65 803.675 1519.92 807.207 1522.7 C 854.072 1559.59 910.873 1584.74 971.192 1589.35 L 971.345 1605.89 L 971.364 1709.37 C 971.375 1731.76 973.081 1774.72 968.028 1795.1 C 962.98 1815.65 952.422 1834.44 937.49 1849.43 C 903.677 1883.38 869.749 1883.97 825.784 1883.98 L 769.274 1883.96 L 721.127 1883.99 C 682.429 1883.96 653.493 1882.71 623.695 1853.41 C 604.992 1834.96 594.385 1809.83 594.208 1783.56 C 593.903 1757.16 604.327 1731.77 623.094 1713.2 C 655.432 1681.12 687.314 1683.64 728.585 1683.72 L 794.39 1683.74 C 794.859 1628.3 792.959 1567.93 794.86 1513.38 z" fill="rgb(111,29,13)" transform="translate(0,0)"></path>
<path d="M 798.019 1520.1 C 806.528 1525.27 816.902 1535.18 826.124 1541.06 C 871.351 1569.93 914.714 1586.69 968.046 1592.57 L 967.999 1709.87 C 968.017 1735.89 969.781 1771.22 964.501 1795.88 C 961.137 1811.59 946.707 1836.26 934.875 1847.29 C 898.811 1880.93 869.519 1880.39 825 1880.55 L 768.161 1880.83 L 721.861 1880.54 C 683.747 1880.49 656.436 1879.94 626.865 1851.53 C 608.667 1834.02 598.169 1810 597.681 1784.75 C 597.205 1759.27 606.979 1734.66 624.811 1716.44 C 657.136 1683.67 691.134 1686.87 732.49 1687.01 L 797.557 1686.97 C 798.036 1631.35 798.19 1575.72 798.019 1520.1 z" fill="rgb(244,65,18)" transform="translate(0,0)"></path>
<path d="M 731.303 1397.63 C 779.513 1407.7 836.244 1405 886.094 1405.01 L 998.601 1405.06 C 1033.83 1405.08 1064.65 1404.87 1099.88 1408.19 C 1157.72 1413.65 1205.75 1426.58 1260.94 1442.72 C 1241.48 1471.74 1223.35 1487.91 1196.97 1509.22 C 1181.97 1520.74 1156.95 1534.74 1139.99 1542.46 C 1064.6 1577.03 978.522 1580.01 900.93 1550.73 C 829.515 1523.98 763.155 1467.53 731.303 1397.63 z" fill="rgb(111,29,13)" transform="translate(0,0)"></path>
<path d="M 738.939 1402.57 C 788.396 1410.07 827.781 1408.13 877.602 1408.11 L 995.228 1408.08 C 1027.93 1408.1 1059.53 1407.79 1092.16 1410.64 C 1148.37 1415.56 1200.31 1427.45 1253.93 1444.49 C 1232.13 1472.97 1220.98 1483.27 1193.28 1505.7 C 1184.55 1511.85 1175.56 1517.62 1166.33 1523 C 1095.62 1564.62 1011.22 1576.32 931.85 1555.51 C 844.854 1531.98 783.124 1479.99 738.939 1402.57 z" fill="rgb(244,65,18)" transform="translate(0,0)"></path>
<metadata><recraft-signature>{"signed_by": "recraft", "signature_b64": "VV24glsCk5YENGstCwM15iR/BOm47G1KRY6qn/qX8B8O8nqqyeLjTuroPJ5GXvz+f7qqv7X6jSGCRU5VOSFdDg==", "signing_algo": "Ed25519", "generation_timestamp": 1780520749, "identifier": "70a1c0ae-c7cc-4e5c-9c8c-5b55f86138f7"}</recraft-signature></metadata></svg>