<svg xmlns="http://www.w3.org/2000/svg" height="2048" preserveAspectRatio="none" style="display: block;" version="1.1" viewBox="0 0 2048 2048" width="2048">
<path d="M 0 0 L 2048 0 L 2048 2048 L 0 2048 L 0 0 z" fill="rgb(255,255,255)" transform="translate(0,0)"></path>
<path d="M 951.516 507.336 C 1004.46 501.752 1048.53 541.485 1058.97 591.899 L 1078.93 592.15 C 1082.88 571.032 1090.74 553.528 1105.63 537.753 C 1123.47 518.769 1148.19 507.738 1174.23 507.133 C 1200.55 506.687 1225.93 516.914 1244.59 535.484 C 1279.99 570.537 1275.79 609.604 1275.83 655.178 C 1291.35 664.346 1309.37 678.243 1322.61 690.239 C 1395.14 756.313 1438.22 848.652 1442.26 946.68 C 1530.09 1032.26 1582.22 1174.71 1605.91 1292.36 C 1608.61 1305.74 1617.58 1318.73 1620.14 1333.46 C 1627.05 1373.18 1609.73 1399.19 1569.31 1406.96 C 1554.65 1427.81 1534.43 1429.77 1513.05 1418.01 C 1473.47 1439.56 1449.57 1403.58 1444.47 1368.56 C 1416.92 1380.13 1385.69 1369.26 1384.99 1336.73 C 1384.86 1329.64 1386.56 1322.64 1389.93 1316.4 C 1395.66 1306 1423.62 1278.84 1433.38 1268.9 C 1429.39 1229.85 1414.54 1176.32 1397.96 1141.04 C 1354.27 1219.27 1297.79 1272.28 1217.33 1311.01 L 1217.34 1475.79 C 1261.98 1482.25 1303.13 1512.77 1307.37 1560.21 L 1079.81 1560.07 L 1080.17 1445.75 L 1080.05 1345.82 L 1057.12 1346.8 L 1057.47 1559.96 C 982.538 1560.8 906.279 1560.08 831.239 1560.11 C 837.52 1512.15 878.422 1478.28 925.929 1475.91 L 926.022 1322.66 C 827.408 1284.56 757.364 1213.08 713.517 1117.92 C 687.966 1118.37 669.381 1117.35 643.911 1111.31 C 577.027 1095.45 519.313 1053.4 483.728 994.589 C 445.365 932.239 437.796 864.037 429.447 792.99 C 426.282 766.051 426.234 742.903 460.758 739.37 C 465.759 738.858 471.524 741.519 476.331 742.944 C 478.756 738.112 472.815 728.835 483.379 714.57 C 488.52 707.627 496.307 703.123 504.889 702.13 C 516.25 700.707 523.569 704.601 532.096 711.031 C 552.09 686.513 589.449 689.906 595.298 721.16 C 599.194 741.981 597.617 776.766 598.01 799.005 C 612.427 790.154 631.697 782.12 648.199 790.372 C 655.057 793.885 660.197 800.029 662.443 807.399 C 669.775 830.749 646.499 843.109 638.173 862.037 C 617.587 908.834 637.227 959.63 682.761 981.408 C 682.034 940.562 685.038 900.363 696.479 860.934 C 721.438 774.924 783.098 689.753 861.804 646.007 C 861.572 607.92 859.023 575.27 884.34 543.397 C 901.517 521.772 924.455 510.691 951.516 507.336 z" fill="rgb(14,13,13)" transform="translate(0,0)"></path>
<path d="M 1060.14 599.413 C 1066.1 599.379 1072.3 599.548 1078.28 599.626 L 1078.23 601.569 C 1077.59 637.459 1077.43 673.357 1077.77 709.252 C 1077.88 760.384 1069.88 818.238 1107.92 857.835 C 1125.78 876.306 1150.29 886.862 1175.99 887.149 C 1201.48 887.355 1226.02 877.445 1244.23 859.591 C 1257.52 846.545 1267.08 830.182 1271.92 812.198 C 1277.7 790.974 1276.14 758.153 1276.05 735.44 L 1275.85 663.749 C 1291.71 674.064 1306.63 685.761 1320.44 698.702 C 1390.58 764.214 1431.74 854.965 1434.82 950.892 C 1437.27 1050.26 1400.35 1146.58 1332.12 1218.86 C 1275.33 1279.17 1200.56 1319.49 1118.97 1333.82 C 1096.94 1337.56 1076 1338.65 1053.75 1339.31 C 923.049 1340.7 801.026 1262.17 737.89 1149.71 C 677.109 1041.44 673.152 901.82 732.596 792.236 C 761.601 738.766 808.88 684.42 862.038 654.084 L 861.815 730.373 C 861.768 757.393 860.035 789.713 867.46 815.304 C 872.134 831.406 880.733 846.095 892.484 858.055 C 910.244 876.293 934.543 886.698 959.999 886.966 C 986.075 887.107 1011.14 876.881 1029.67 858.54 C 1067.46 820.956 1060.25 777.489 1060.23 728.768 L 1060.14 599.413 z" fill="rgb(254,94,51)" transform="translate(0,0)"></path>
<path d="M 1256.2 912.109 C 1257.38 912.188 1258.56 912.273 1259.74 912.445 C 1268.68 913.751 1293.56 941.786 1312.27 948.457 C 1320.35 951.336 1333.41 952.268 1338.47 959.851 C 1340.98 963.582 1341.81 968.188 1340.78 972.559 C 1336.17 991.883 1309.87 981.679 1297.57 977.311 C 1296.1 981.641 1294.5 985.922 1292.76 990.15 C 1266.79 1051.23 1217.82 1099.63 1156.44 1124.9 C 1096.58 1150 1029.12 1149.86 969.365 1124.51 C 900.695 1095.53 857.301 1045.95 829.58 978.111 C 822.483 980.415 817.529 981.627 810.212 983.232 C 808.41 983.479 806.603 983.691 804.792 983.865 C 789.611 985.265 778.001 970.375 790.162 958.226 C 797.894 951.63 809.074 951.579 818.32 947.026 C 835.437 938.598 846.598 925.587 861.235 914.213 C 866.061 910.463 875.46 913.221 879.442 917.869 C 891.715 932.193 873.661 948.12 863.279 956.857 C 866.427 964.316 869.618 971.756 872.851 979.178 C 895.77 1030.24 937.928 1070.19 990.153 1090.32 C 1040.49 1110.11 1096.7 1108.7 1145.97 1086.39 C 1205.78 1059.65 1240.51 1017.32 1263.51 957.176 C 1250.45 945.178 1225.57 921.826 1256.2 912.109 z" fill="rgb(14,13,13)" transform="translate(0,0)"></path>
<path d="M 557.599 702.182 C 566.324 701.518 573.081 702.352 579.74 708.619 C 587.833 716.154 589.328 726.975 589.539 737.438 C 589.994 759.918 589.6 782.491 590.737 804.946 C 573.169 821.453 564.209 836.078 559.674 859.529 C 551.199 865.135 533.631 881.479 532.562 891.909 C 534.429 894.387 533.228 893.568 536.38 894.3 C 539.929 892.273 548.69 878.532 553.347 874.052 C 558.779 868.826 559.693 868.141 566.194 863.795 C 569.652 838.296 585.546 814.518 608.281 801.59 C 621.154 793.025 647.28 789.762 654.854 807.074 C 662.887 825.434 636.858 844.852 629.922 862.282 C 619.853 886.972 620.276 914.699 631.095 939.07 C 641.747 963.431 658.441 979.158 682.937 988.712 C 687.943 1035.75 693.068 1066.25 710.66 1110.79 C 671.68 1111.98 638.53 1104.84 602.832 1089.99 C 577.012 1078.59 553.348 1062.82 532.875 1043.39 C 457.277 970.982 444.744 874.641 435.282 775.153 C 433.852 760.123 446.483 745.747 461.674 746.304 C 469.423 746.588 474.706 751.979 479.508 757.392 C 482.361 770.622 487.278 819.599 493.259 825.685 L 495.137 825.557 C 500.472 817.73 487.107 761.615 485.11 749.547 C 483.472 739.64 482.723 727.445 489.135 719.041 C 493.244 713.657 500.315 709.973 507.012 709.243 C 515.725 708.293 521.99 712.983 528.26 718.258 C 528.023 721.449 527.872 724.645 527.807 727.843 C 527.513 747.924 528.585 768.435 528.364 788.575 C 528.3 794.421 527.717 808.696 531.799 812.866 L 534.06 812.666 C 540.303 804.668 529.993 730.921 538.342 717.065 C 544.34 707.111 546.906 705.661 557.599 702.182 z" fill="rgb(254,94,51)" transform="translate(0,0)"></path>
<path d="M 1466.85 987.297 C 1474.11 992.978 1487.04 1013.6 1492.87 1022.25 C 1536.26 1086.66 1564.32 1160.75 1585.33 1235.12 C 1590.66 1254.01 1594.56 1273.38 1598.5 1292.6 C 1599.99 1299.85 1602.16 1306.2 1605.3 1312.9 C 1622.34 1349.21 1616.85 1387.29 1572.85 1399.26 C 1574.99 1390.61 1577.51 1365.63 1566.43 1362.12 C 1563.36 1365.77 1565.01 1372.17 1566.11 1376.68 C 1571.62 1399.24 1558.21 1417.54 1534.86 1418.18 C 1530.64 1418.3 1520.54 1415.17 1518.58 1411.14 L 1521.27 1406.81 C 1523.55 1401.15 1528.73 1380.61 1521.68 1377.54 C 1520.83 1377.92 1519.97 1378.29 1519.12 1378.66 C 1518.14 1389.35 1517.46 1399.89 1510.61 1408.76 C 1506.74 1413.77 1501.79 1417.54 1495.34 1418.18 C 1486.79 1419.03 1475.96 1413.49 1469.8 1407.9 C 1456.17 1395.57 1451.97 1374.58 1450.85 1357.19 C 1442.51 1361.33 1433.8 1365.35 1424.67 1366.35 C 1408.2 1368.13 1392.98 1354.08 1392.32 1337.77 C 1391.8 1324.98 1398.47 1315.52 1406.88 1306.64 C 1418.29 1294.61 1430.08 1282.91 1441.23 1270.61 C 1435.14 1230.62 1429.38 1205.74 1417.25 1167.84 C 1423.1 1150.33 1427.49 1130.77 1432.99 1113.01 C 1445.99 1070.97 1456.58 1029.98 1466.85 987.297 z" fill="rgb(254,94,51)" transform="translate(0,0)"></path>
<path d="M 950.58 515.28 C 968.859 513.441 988.469 517.779 1004.47 526.745 C 1026.44 539.134 1042.49 559.85 1049.01 584.217 C 1050.81 590.836 1052.16 599.097 1052.31 605.967 C 1053.45 655.414 1052.36 704.958 1052.8 754.429 C 1052.92 768.443 1053.47 784.617 1051.59 798.304 C 1049.9 810.431 1045.86 822.112 1039.7 832.69 C 1027.41 854.443 1006.82 870.279 982.645 876.572 C 957.921 883.192 935.701 878.535 913.897 866.063 L 913.221 865.609 C 887.977 848.339 877.038 826.948 871.586 797.587 C 886.215 795.678 898.578 790.969 910.537 782.212 C 928.67 768.801 940.688 748.697 943.915 726.375 C 947.139 704.162 941.347 681.581 927.829 663.662 C 912.85 643.864 893.578 633.868 869.334 630.607 C 869.023 601.426 870.216 575.561 888.251 551.261 C 904.524 529.335 924.273 519.418 950.58 515.28 z" fill="rgb(255,255,255)" transform="translate(0,0)"></path>
<path d="M 1167.63 515.35 C 1185.72 513.828 1202.21 516.699 1218.28 525.456 C 1240.51 537.744 1256.91 558.408 1263.82 582.85 C 1272.39 613.115 1266.69 668.876 1268.16 702.009 C 1269.48 731.667 1268.55 768.594 1266.74 797.836 C 1264.61 832.204 1233.95 868.332 1200.54 876.185 C 1173.35 883.335 1152.42 878.843 1128.61 865.259 C 1104.08 848.502 1092.17 825.969 1087.35 797.232 C 1103.09 795.317 1115.61 791.399 1128.55 781.838 C 1146.52 768.624 1158.35 748.673 1161.32 726.565 C 1164.46 703.599 1158.2 680.336 1143.97 662.041 C 1129.05 642.772 1109.28 633.448 1085.56 630.471 C 1080.68 573.353 1107.42 523.39 1167.63 515.35 z" fill="rgb(255,255,255)" transform="translate(0,0)"></path>
<path d="M 933.005 1337.18 C 940.502 1340.42 951.918 1348.37 960.491 1352.43 C 990.827 1366.78 1016.95 1374.57 1049.67 1381.08 L 1049.97 1552.65 L 893.5 1552.83 L 839.718 1552.82 C 841.379 1546.65 842.814 1542.15 845.605 1536.35 C 856.647 1513.75 876.113 1496.39 899.821 1487.98 C 916.561 1482.15 936.8 1480.6 953.747 1487.02 C 960.591 1489.61 969.467 1495.71 976.841 1499.25 C 979.692 1498.02 978.488 1498.97 980.208 1495.91 C 977.178 1484.51 944.361 1476.76 933.023 1476.12 L 933.005 1337.18 z" fill="rgb(254,94,51)" transform="translate(0,0)"></path>
<path d="M 1207.81 1353.05 L 1208.56 1353.58 C 1210.9 1358.7 1209.8 1462.43 1209.79 1475.77 C 1198.53 1476.17 1187.45 1478.6 1177.06 1482.94 C 1171.58 1485.23 1160.17 1490.01 1157.94 1495.41 C 1158.64 1498.46 1157.94 1497.07 1160.63 1499.42 C 1165.51 1499.27 1181.62 1487.57 1188.83 1485.78 C 1239.95 1473.07 1284.31 1505.09 1298.93 1552.78 L 1246.48 1552.77 L 1087.55 1552.65 C 1086.56 1497.77 1086.89 1436.02 1087.98 1381.22 C 1127.5 1378.74 1170.72 1366.17 1207.81 1353.05 z" fill="rgb(254,94,51)" transform="translate(0,0)"></path>
<metadata><recraft-signature>{"signed_by": "recraft", "signature_b64": "r8WvAwqnzsRTaN9jZ7uRc1M8xjnm6gBvW5yPLOwKtJGNtPeYrRNBaXMsHbjBC9AYCGJ6aVjKjL0h6uUmilTzBg==", "signing_algo": "Ed25519", "generation_timestamp": 1780520713, "identifier": "537a38b8-a7d2-438c-bbd2-2a24bc40c614"}</recraft-signature></metadata></svg>