<svg xmlns="http://www.w3.org/2000/svg" height="2048" preserveAspectRatio="none" style="display: block;" version="1.1" viewBox="0 0 2048 2048" width="2048">
<path d="M 0 0 L 2048 0 L 2048 2048 L 0 2048 L 0 0 z" fill="rgb(255,255,255)" transform="translate(0,0)"></path>
<path d="M 925.325 626.529 C 1011.73 624.664 1103.56 625.73 1190.21 625.828 L 1289.48 625.994 C 1343.1 626.217 1406.99 621.674 1445.04 666.693 C 1469.76 695.663 1473.85 743.898 1459.13 778.29 C 1436.25 831.72 1376.31 842.552 1324.26 842.301 C 1295.03 842.159 1265.75 842.795 1236.55 842.753 C 1192.89 842.724 1149.23 842.469 1105.58 841.99 C 1048.16 841.226 952.175 831.57 943.853 910.143 C 943.107 943.014 941.605 977.652 942.884 1010.47 C 947.176 1120.63 1085.71 1103.73 1157.52 1103.42 L 1275.54 1103.69 C 1290.41 1103.65 1325.06 1101.49 1336.94 1106.61 C 1346.45 1110.71 1353.92 1118.45 1357.68 1128.1 C 1361.31 1137.73 1360.73 1148.44 1356.07 1157.61 C 1342.63 1184 1308.68 1176.5 1284.41 1177.85 C 1278.78 1178.16 1272.55 1177.88 1266.86 1177.89 L 1146.41 1178.03 C 1103.54 1178.05 1046.53 1174.56 1006.9 1186.58 C 989.144 1192.35 970.411 1203.97 958.528 1218.55 C 940.545 1240.61 942.403 1271.53 942.322 1298.33 C 942.275 1313.85 942.283 1329.52 942.307 1345.1 L 942.744 1408.58 C 942.905 1424.72 942.607 1441.01 944.7 1457.05 C 946.445 1470.42 951.767 1481.52 960.899 1491.37 C 995.658 1528.86 1033.56 1501.35 1059.43 1522.03 C 1067.06 1528.13 1071.87 1537.62 1072.84 1547.29 C 1073.83 1557.09 1070.81 1566.88 1064.46 1574.41 C 1057.83 1582.32 1047.86 1587.47 1037.65 1587.74 C 1014.32 1588.37 990.275 1588.06 966.915 1588.03 L 826.527 1588.01 L 682.367 1587.95 C 659.031 1587.95 635.36 1588.6 612.087 1587.73 C 593.864 1587.05 578.993 1569.75 578.022 1551.97 C 577.407 1542.24 580.882 1532.69 587.609 1525.62 C 611.285 1500.53 678.989 1529.11 695.241 1485.26 C 710.296 1444.63 705.736 1386.37 705.664 1342.69 L 705.652 979.999 C 705.749 954.861 705.693 929.722 705.483 904.584 C 704.882 864.115 703.061 830.366 710.3 790.128 C 732.363 667.49 810.439 630.19 925.325 626.529 z" fill="rgb(254,48,8)" transform="translate(0,0)"></path>
<path d="M 1214.41 932.104 C 1220.53 932.326 1229.23 935.354 1231.34 940.999 C 1244.35 975.847 1196.62 1021.26 1173.08 1034.43 C 1143.86 1050.51 1109.49 1054.47 1077.37 1045.46 C 1041.49 1035.21 1017.68 1013.96 999.805 981.968 C 994.715 971.707 986.008 953.219 992.707 942.418 C 995.556 937.761 1000.15 934.439 1005.47 933.194 C 1022.6 929.357 1026.18 947.077 1030.7 958.562 C 1037.9 976.512 1050.83 991.578 1067.48 1001.41 C 1088.24 1013.49 1114.36 1015.23 1135.5 1009.27 C 1171.92 999.009 1189.39 973.288 1201.91 939.949 C 1203.57 935.526 1209.73 933.264 1214.41 932.104 z" fill="rgb(254,48,8)" transform="translate(0,0)"></path>
<path d="M 956.009 463.365 C 984.376 458.056 1011.64 476.855 1016.77 505.256 C 1021.89 533.658 1002.92 560.803 974.486 565.745 C 946.311 570.642 919.467 551.877 914.388 523.734 C 909.308 495.591 927.9 468.626 956.009 463.365 z" fill="rgb(254,48,8)" transform="translate(0,0)"></path>
<path d="M 1212.63 462.503 C 1241.33 461.08 1265.73 483.233 1267.07 511.936 C 1268.42 540.639 1246.2 564.979 1217.5 566.249 C 1188.9 567.514 1164.67 545.398 1163.33 516.803 C 1161.99 488.208 1184.04 463.921 1212.63 462.503 z" fill="rgb(254,48,8)" transform="translate(0,0)"></path>
<metadata><recraft-signature>{"signed_by": "recraft", "signature_b64": "huYgnIhUJe/P3evEQUfvhR1OYdY9xagZQEhN/2b9rKhEIsVHnJzGUnYAM+Ykf1mrnPXIRIpt+bblzeVWvZmcCQ==", "signing_algo": "Ed25519", "generation_timestamp": 1780520748, "identifier": "9878d586-d1f7-4941-8843-e5476cac3b10"}</recraft-signature></metadata></svg>