<svg xmlns="http://www.w3.org/2000/svg" height="2048" preserveAspectRatio="none" style="display: block;" version="1.1" viewBox="0 0 2048 2048" width="2048">
<path d="M 0 0 L 2048 0 L 2048 2048 L 0 2048 L 0 0 z" fill="rgb(255,255,255)" transform="translate(0,0)"></path>
<path d="M 1007.48 625.912 C 1227.14 616.415 1413.01 786.549 1422.94 1006.18 C 1432.86 1225.82 1263.09 1412.02 1043.47 1422.38 C 823.253 1432.76 636.423 1262.42 626.47 1042.17 C 616.518 821.933 787.224 635.434 1007.48 625.912 z" fill="rgb(248,88,38)" transform="translate(0,0)"></path>
<path d="M 803.358 1064.16 C 831.173 1062.37 831.884 1079.24 839.446 1099.01 C 896.1 1247.09 1100.59 1269.89 1189.12 1138.85 C 1197 1126.95 1203.62 1114.26 1208.86 1100.98 C 1211.78 1093.5 1213.7 1085.34 1217.66 1078.41 C 1228.56 1059.41 1256.97 1058.14 1265.7 1079.8 C 1271.88 1095.12 1263.49 1112.96 1257.66 1127.25 C 1230.2 1189.66 1181.65 1237.79 1117.77 1262.47 C 1054.43 1287.14 983.884 1285.64 921.649 1258.3 C 860.989 1230.97 812.082 1182.39 788.588 1119.75 C 779.866 1096.49 773.829 1074.21 803.358 1064.16 z" fill="rgb(4,3,3)" transform="translate(0,0)"></path>
<path d="M 1156.66 872.584 C 1186.7 870.564 1212.72 893.203 1214.87 923.231 C 1217.03 953.259 1194.5 979.381 1164.49 981.669 C 1134.28 983.972 1107.96 961.275 1105.79 931.057 C 1103.62 900.839 1126.43 874.617 1156.66 872.584 z" fill="rgb(4,3,3)" transform="translate(0,0)"></path>
<path d="M 887.113 872.553 C 917.36 871.457 942.727 895.174 943.665 925.427 C 944.603 955.68 920.754 980.923 890.496 981.703 C 860.462 982.477 835.444 958.841 834.513 928.811 C 833.583 898.781 857.088 873.64 887.113 872.553 z" fill="rgb(4,3,3)" transform="translate(0,0)"></path>
<metadata><recraft-signature>{"signed_by": "recraft", "signature_b64": "DR9diVFYFvA+kHyPub17ozdcP1fR/izHlsNzNnStxrGr0JAbgNda9Xpgr6A3JmdYdERVB2hwJRYHXZ3SE8XCAQ==", "signing_algo": "Ed25519", "generation_timestamp": 1780520765, "identifier": "50f14dfb-5bd0-4eee-8f10-41e2750f1fa1"}</recraft-signature></metadata></svg>