<svg xmlns="http://www.w3.org/2000/svg" height="2048" preserveAspectRatio="none" style="display: block;" version="1.1" viewBox="0 0 2048 2048" width="2048">
<path d="M 0 0 L 2048 0 L 2048 2048 L 0 2048 L 0 0 z" fill="rgb(253,254,253)" transform="translate(0,0)"></path>
<path d="M 1044.38 402.426 C 1082.22 398.637 1129.92 405.982 1166.32 416.535 C 1258.17 443.651 1335.54 506.052 1381.48 590.08 C 1427.39 674.412 1437.71 773.587 1410.15 865.565 C 1453.33 875.907 1491.1 890.37 1527.73 916.309 C 1593.27 963.287 1637.46 1034.37 1650.6 1113.92 C 1665.02 1194.16 1646.33 1276.81 1598.79 1343.03 C 1547.88 1414.5 1478.2 1455.69 1392.29 1470.34 C 1394.23 1488.57 1404.26 1513.61 1413.48 1529.32 C 1443.33 1580.17 1481.76 1606.24 1537.17 1621.8 C 1499.12 1643.41 1448.68 1654.94 1405.02 1652.84 C 1351.15 1650.25 1301.99 1630.45 1262.47 1593.35 C 1249.7 1581.37 1240.21 1568.75 1228.57 1556.02 C 1186.92 1509.84 1128.39 1482.42 1066.25 1479.97 C 1029.44 1479.17 990.006 1479.84 953.107 1479.97 L 818.049 1479.84 C 755.358 1479.83 695.305 1483.71 634.49 1465.83 C 570.51 1447.02 519.64 1414.86 477.292 1363.21 C 426.299 1300.8 402.196 1220.68 410.29 1140.49 C 419.497 1049.67 462.587 979.948 532.178 922.947 C 490.56 897.799 449.305 871.149 407.89 845.597 C 390.602 834.93 372.604 826.095 361.681 808.332 C 352.589 793.692 349.75 776.016 353.803 759.266 C 359.102 737.477 372.347 724.371 390.846 713.198 C 372.945 667.377 399.31 630.704 445.429 623.389 C 452.071 592.622 479.332 567.655 511.994 569.566 C 544.699 571.479 564.327 597.622 584.33 620.252 C 596.372 633.86 608.34 647.533 620.234 661.27 C 639.577 608.6 687.668 567.655 741.321 605.324 C 757.961 572.222 768.313 555.049 792.987 526.961 C 856.548 453.229 947.211 408.316 1044.38 402.426 z" fill="rgb(245,48,3)" transform="translate(0,0)"></path>
<path d="M 1053.51 449.428 C 1088.58 447.166 1134.19 454.262 1167.29 465.921 C 1246.39 493.501 1311.23 551.47 1347.47 626.997 C 1381.43 698.581 1387.99 783.723 1361.37 858.725 C 1322.96 856.587 1276.62 857.563 1237.73 857.678 C 1241.22 854.354 1244.61 850.932 1247.9 847.416 C 1271.8 821.553 1293.29 780.2 1261.41 751.37 C 1234.67 727.181 1204.63 750.58 1180.3 762.557 C 1149.9 777.525 1114.85 785.671 1081.25 788.596 C 1036.08 793.59 986.849 779.637 946.995 758.974 C 933.94 752.206 925.815 744.17 910.591 741.733 C 883.267 737.359 861.306 756.156 858.106 782.849 C 855.437 810.23 872.677 838.093 889.616 858.502 C 845.814 857.199 795.224 858.18 750.857 858.222 C 764.882 820.716 760.07 795.507 757.685 757.688 C 750.868 649.594 816.253 543.698 909.062 491.061 C 955.578 464.678 1000.53 452.815 1053.51 449.428 z" fill="rgb(253,254,253)" transform="translate(0,0)"></path>
<path d="M 1169.68 541.466 C 1181.28 542.896 1189.58 545.641 1198.02 554.623 C 1219.67 578.856 1223.61 612.779 1223.17 644.616 C 1222.73 676.088 1208.82 733.683 1168 733.964 C 1154.84 734.055 1144.38 724.351 1136.03 714.67 C 1121.47 693.398 1118.58 675.778 1115.86 651.074 C 1135.08 643.483 1154.89 633.877 1174.65 625.976 C 1158.71 618.239 1134.79 604.395 1119.47 595.21 C 1126.36 568.562 1139.19 544.09 1169.68 541.466 z" fill="rgb(245,48,3)" transform="translate(0,0)"></path>
<path d="M 970.313 542.287 C 1042.88 536.277 1044.08 682.754 1006.17 720.053 C 984.933 740.94 965.924 737.643 946.658 718.402 C 930.461 697.359 925.681 676.967 923.872 650.95 C 943.483 642.835 963.013 634.526 982.46 626.025 C 963.979 615.61 945.429 605.319 926.811 595.154 C 932.491 571.676 945.155 548.39 970.313 542.287 z" fill="rgb(245,48,3)" transform="translate(0,0)"></path>
<path d="M 505.383 617.087 C 509.606 616.742 514.903 616.73 518.251 619.669 C 555.474 652.34 584.643 694.726 621.247 728.008 C 625.205 731.607 635.366 733.744 640.52 732.129 C 660.312 725.925 658.192 700.049 663.746 683.977 C 669.682 663.727 683.559 627.461 711.133 640.707 C 725.599 649.035 712.918 669.379 709.395 681.884 C 692.411 742.164 733.649 806.046 692.026 859.865 C 648.311 864.313 611.903 871.283 572.394 892.79 C 538.116 870.29 500.855 848.993 465.97 826.86 C 453.051 818.67 407.972 793.692 401.354 782.727 C 398.964 778.766 398.921 773.155 399.983 768.772 C 401.212 763.7 404.598 759.022 409.131 756.405 C 431.227 743.649 476.747 804.11 500.804 809.098 C 506.342 810.246 512.75 808.826 517.429 805.718 C 522.51 802.301 525.946 796.929 526.917 790.883 C 527.756 785.85 527.328 780.42 524.754 775.949 C 518.42 764.948 471.858 730.742 458.906 721.012 C 450.691 714.841 439.862 708.688 434.273 699.94 C 431.396 695.436 430.193 690.253 431.486 685.002 C 432.773 679.777 435.701 675.105 440.484 672.454 C 445.806 669.504 452.408 670.31 457.698 672.882 C 466.151 676.992 472.989 685.084 479.71 691.524 C 491.968 703.27 533.007 746.351 546 749.459 C 551.505 750.776 556.88 749.726 561.636 746.716 C 566.786 743.457 571.632 738.645 572.856 732.46 C 578.426 704.315 508.7 667.137 494.972 643.609 C 492.371 639.151 490.974 633.82 492.648 628.784 C 494.709 622.584 499.774 619.658 505.383 617.087 z" fill="rgb(253,254,253)" transform="translate(0,0)"></path>
<path d="M 902.152 791.221 C 909.461 794.53 918.263 799.53 926.266 803.242 C 951.115 815.018 977.29 823.765 1004.23 829.295 C 1065.9 840.836 1129.57 834.891 1188.04 812.133 C 1202.37 806.708 1218.69 799.751 1231.27 791.297 C 1225.33 810.477 1219.81 821.483 1207.88 837.345 C 1170.29 884.628 1102.26 906.37 1043.25 900.55 C 984.539 894.759 913.514 853.733 902.152 791.221 z" fill="rgb(253,254,253)" transform="translate(0,0)"></path>
<metadata><recraft-signature>{"signed_by": "recraft", "signature_b64": "EhRjTd+JRgsJPk++JBrpqgdmogrovysNRwv+pkqT+dcWzJNGzTUE932dH/BsSq1YQkGkO4IdAhxFWMvuF8O6BA==", "signing_algo": "Ed25519", "generation_timestamp": 1780520713, "identifier": "c6fd4daf-a49f-4ecc-b811-713bec7f2602"}</recraft-signature></metadata></svg>