<svg version="1.1" xmlns="http://www.w3.org/2000/svg" style="display: block;" viewBox="0 0 2048 2048" width="1024" height="1024" preserveAspectRatio="none">
<path transform="translate(0,0)" fill="rgb(244,230,207)" d="M 0 0 L 2048 0 L 2048 2048 L 0 2048 L 0 0 z"/>
<path transform="translate(0,0)" fill="rgb(61,21,13)" d="M 999.342 271.424 C 1026.9 269.018 1076.67 272.319 1104.02 275.29 C 1297.08 296.255 1466.95 400.927 1586.06 552.996 C 1719.18 722.943 1801.75 970.296 1775.23 1187.34 C 1756.08 1352.9 1670.49 1503.57 1538.1 1604.81 C 1398.38 1713.78 1215.33 1766.14 1039.74 1773.07 C 998.202 1774.71 953.045 1773.58 911.76 1768.5 C 828.597 1759.53 747.339 1737.67 670.904 1703.69 C 654.923 1712.5 640.662 1722.59 623.952 1730.76 C 561.857 1761.3 496.466 1777.72 426.991 1773.64 C 372.871 1770.46 346.423 1713.88 381.467 1672.87 C 416.878 1631.44 433.551 1593 441.377 1539.39 C 434.177 1529.35 424.299 1519.65 416.472 1510.04 C 405.672 1496.77 394.427 1482.24 384.716 1468.19 C 310.703 1361.13 273.759 1239.24 267.416 1109.7 C 264.712 1054.48 268.418 1001.75 275.265 947.015 C 295.71 783.572 357.508 627.936 468.624 504.591 C 574.517 387.045 717.758 313.221 872.819 285.146 C 918.902 276.802 953.295 273.829 999.342 271.424 z"/>
<path transform="translate(0,0)" fill="rgb(241,89,32)" d="M 641.968 438.173 C 660.554 424.49 693.796 407.449 715.231 397.643 C 837.225 341.834 991.137 319.13 1123.82 339.365 C 1297.48 365.848 1449.04 469.507 1552.22 609.555 C 1669.82 769.177 1742.37 1001.39 1711.78 1199.78 C 1698.87 1287.89 1664.54 1371.49 1611.78 1443.23 C 1606.14 1452.87 1585.84 1476.61 1578.05 1485.41 C 1506.42 1566.45 1406.82 1627.32 1304.79 1662.28 C 1147.27 1716.24 967.312 1731.64 805.393 1688.05 C 753.237 1674.01 714.307 1658.15 666.298 1635.07 C 598.372 1682.93 510.759 1722.86 425.7 1713.79 C 434.319 1701.51 444.473 1691.28 453.471 1677.62 C 486.636 1627.27 499.904 1577.3 503.171 1517.97 C 494.434 1507.17 482.57 1495.65 473 1484.27 C 448.547 1455.39 426.728 1424.38 407.805 1391.61 C 310.538 1223.34 311.72 1013.61 361.137 830.391 C 393.736 704.694 461.566 590.925 556.641 502.476 C 579.931 481.106 614.429 453.992 641.968 438.173 z"/>
<path transform="translate(0,0)" fill="rgb(213,66,11)" d="M 503.171 1517.97 C 494.434 1507.17 482.57 1495.65 473 1484.27 C 448.547 1455.39 426.728 1424.38 407.805 1391.61 C 310.538 1223.34 311.72 1013.61 361.137 830.391 C 393.736 704.694 461.566 590.925 556.641 502.476 C 579.931 481.106 614.429 453.992 641.968 438.173 C 641.739 438.661 641.517 439.153 641.28 439.637 C 635.608 451.182 611.422 477.739 601.997 490.872 C 580.824 520.373 563.038 552.568 546.877 585.033 C 458.799 761.969 452.659 1017.93 511.212 1205.01 C 555.966 1348.01 647.613 1466.02 781.232 1535.82 C 885.509 1590.3 1003.11 1615.01 1120.52 1613.98 C 1143.87 1613.77 1167.46 1611.54 1190.72 1609.56 C 1250.58 1604.45 1311.11 1594.06 1368.5 1575.99 C 1432.97 1555.69 1492.56 1528.46 1548.7 1490.65 C 1561.12 1482.11 1573.02 1472.86 1584.35 1462.94 C 1591.32 1456.89 1602.59 1443.53 1611.78 1443.23 C 1606.14 1452.87 1585.84 1476.61 1578.05 1485.41 C 1506.42 1566.45 1406.82 1627.32 1304.79 1662.28 C 1147.27 1716.24 967.312 1731.64 805.393 1688.05 C 753.237 1674.01 714.307 1658.15 666.298 1635.07 C 598.372 1682.93 510.759 1722.86 425.7 1713.79 C 434.319 1701.51 444.473 1691.28 453.471 1677.62 C 486.636 1627.27 499.904 1577.3 503.171 1517.97 z"/>
<path transform="translate(0,0)" fill="rgb(61,21,13)" d="M 1279.54 523.414 C 1307.42 522.015 1327.88 526.643 1353.04 538.148 C 1490.1 600.83 1539.33 809.726 1479.34 937.82 L 1480.43 937.826 C 1490.66 937.944 1532.41 938.913 1530 954.543 C 1528.04 957.236 1520.4 960.635 1517.1 961.317 C 1451.73 974.863 1395.61 992.67 1337.98 1027.17 C 1321.71 1037.04 1305.87 1046.94 1290.79 1058.61 C 1285.11 1063 1276.21 1071.05 1268.75 1068.27 C 1261.89 1061.54 1267.72 1049.55 1271.4 1042.6 C 1246.34 1031.52 1234.62 1026.13 1213.01 1008.29 C 1149.17 954.926 1114.72 868.192 1108.21 786.891 C 1099.25 674.883 1150.56 532.968 1279.54 523.414 z"/>
<path transform="translate(0,0)" fill="rgb(244,230,207)" d="M 1273.31 564.323 C 1301.18 560.088 1337.49 571.861 1360 588.135 C 1442.17 647.539 1476.12 768.047 1459.23 865.285 C 1454.63 891.761 1445.08 921.543 1430.26 943.334 C 1384.62 954.577 1362.65 964.047 1323.55 989.804 C 1316.05 995.032 1307.79 1002.91 1300.11 1008.93 C 1281.43 1004.2 1263.84 995.92 1248.3 984.537 C 1198.93 948.811 1171.42 889.693 1156.79 832.017 C 1133.05 738.41 1158.19 581.548 1273.31 564.323 z"/>
<path transform="translate(0,0)" fill="rgb(61,21,13)" d="M 1267.65 676.39 C 1287.11 675.214 1299.65 681.206 1316.02 690.52 C 1306.66 694.283 1299.55 698.478 1294.56 707.604 C 1284.09 726.739 1291.74 755.11 1311.31 765.027 C 1318.96 768.983 1327.92 769.516 1335.98 766.495 C 1347.6 762.096 1353.14 752.998 1358.12 742.487 C 1371.95 767.004 1378.19 809.498 1374.8 837.202 C 1370.72 870.569 1359.89 898.395 1333.54 919.821 C 1307.04 940.277 1267.8 934.878 1243.1 914.143 C 1186.66 866.766 1169.35 764.225 1215.97 704.65 C 1229.53 687.313 1246.04 678.705 1267.65 676.39 z"/>
<path transform="translate(0,0)" fill="rgb(61,21,13)" d="M 780.405 1067.93 C 807.473 1069.02 790.515 1110.78 784.685 1124.48 C 804.186 1134.43 832.95 1145.06 853.637 1152.19 C 970.66 1193.26 1096.49 1202.51 1218.26 1178.98 C 1265.54 1169.52 1312.2 1153.09 1356.56 1134.44 C 1363.44 1131.54 1388.22 1120.76 1392.43 1130.17 C 1391.6 1135.99 1386.81 1141.14 1382.85 1145.42 C 1371.53 1157.74 1358.17 1168.01 1343.36 1175.78 C 1336.58 1179.4 1317.12 1187.19 1313.26 1192.59 C 1271.9 1250.43 1264.86 1320.48 1292.25 1385.3 C 1321.04 1365.07 1334.79 1385.03 1312.42 1410.37 C 1287.4 1436.61 1258.71 1458.5 1225.4 1471.98 C 1043.92 1545.42 878.836 1426.94 791.088 1273.21 C 770.159 1236.54 758.566 1204.88 742.245 1167.35 C 722.356 1176.84 701.997 1183.62 679.749 1181.06 C 672.432 1180.13 663.541 1177.77 664.731 1168.41 C 666.024 1158.23 675.592 1155.34 683.702 1151.81 C 689.43 1149.32 695.83 1147.28 701.358 1144.63 C 722.534 1134.46 742.917 1120.7 756.542 1101.2 C 764.339 1090.04 769.319 1076.38 780.405 1067.93 z"/>
<path transform="translate(0,0)" fill="rgb(241,89,32)" d="M 944.249 1329.36 C 948.176 1328.97 952.12 1328.78 956.067 1328.78 C 1014.3 1328.33 1053.09 1357.43 1092.07 1396.05 C 1087.12 1374.76 1081.05 1363.07 1068.53 1345.1 C 1103 1342.72 1129.33 1345.55 1159.91 1363.03 C 1189.17 1379.76 1206.84 1398.88 1220.11 1429.61 C 1184.15 1447.68 1145.3 1454.5 1105.16 1453.01 C 1019.21 1449.81 950.552 1405.48 893.503 1344.91 C 909.694 1335.46 925.855 1331.9 944.249 1329.36 z"/>
<path transform="translate(0,0)" fill="rgb(61,21,13)" d="M 810.748 823.412 C 857.033 816.737 915.28 835.994 950.308 865.965 C 967.524 880.695 992.076 908.188 996.505 931.196 C 997.429 935.993 994.902 946.633 990.909 950.105 C 972.819 967.066 953.403 945.709 938.614 935.396 C 904.447 910.204 869.267 899.727 827.154 899.82 C 782.213 900.358 730.286 921.638 697.044 951.519 C 688.103 960.126 667.197 973.503 655.514 962.631 C 636.082 944.548 652.513 915.703 664.966 900.616 C 701.228 856.359 753.762 828.538 810.748 823.412 z"/>
<path transform="translate(0,0)" fill="rgb(61,21,13)" d="M 799.872 672.43 C 854.97 669.356 915.182 690.396 957.688 725.119 C 971.531 736.427 989.921 747.281 986.671 768.038 C 985.249 776.572 980.305 784.116 973.047 788.825 C 950.827 803.289 934.359 782.35 918.767 770.532 C 894.963 752.49 866.269 740.849 836.961 735.257 C 785.895 724.976 729.974 738.936 684.329 762.746 C 676.342 766.174 661.118 779.004 652.309 778.752 C 624.121 777.944 636.65 754.246 646.872 743.152 C 687.34 699.235 741.111 675.971 799.872 672.43 z"/>
<path transform="translate(0,0)" fill="rgb(213,66,11)" d="M 1215.1 1521.89 C 1219.97 1521.48 1220.5 1521.28 1222.25 1525.44 C 1222.04 1528.57 1221.43 1531.49 1219.69 1534.14 C 1204.68 1556.84 1175.51 1572.11 1150.07 1578.11 C 1107.77 1588.09 1075.7 1579.5 1039.73 1557.92 C 1032.55 1552.61 1018.51 1544.34 1021 1534.37 C 1021.69 1533.7 1022.38 1533.03 1023.06 1532.36 C 1032.31 1531.52 1049.98 1537.49 1058.57 1539.11 C 1069.2 1541.1 1076.91 1541.54 1086.32 1542.52 C 1131.43 1547.21 1172.79 1536.83 1215.1 1521.89 z"/>
</svg>